<?xml version="1.0" encoding="UTF-8"?>
<svg version="1.1" xmlns="http://www.w3.org/2000/svg" width="90" height="49">
<path d="M0 0 C9.9 0 19.8 0 30 0 C31.60725635 3.21451269 31.05748185 6.43612536 31 10 C31.99 10.33 32.98 10.66 34 11 C35.58965571 13.21701147 36.72327486 15.57862473 38 18 C38.33 15.69 38.66 13.38 39 11 C40.32 11 41.64 11 43 11 C43.495 13.97 43.495 13.97 44 17 C44.37125 16.21625 44.7425 15.4325 45.125 14.625 C47 12 47 12 49.8125 10.5 C53.91944926 9.85577266 55.60001719 10.6818299 59 13 C61.17222379 15.64444635 60.99893321 17.02987018 60.875 20.5 C59.90185747 24.39257014 59.28995572 25.74897767 56 28 C49.78571429 29.39285714 49.78571429 29.39285714 47 28 C46.67 31.3 46.34 34.6 46 38 C40.72 38 35.44 38 30 38 C29.34 32.39 28.68 26.78 28 21 C26.02 21 24.04 21 22 21 C22.33 21.598125 22.66 22.19625 23 22.8125 C24 25 24 25 24 28 C21.69 28.33 19.38 28.66 17 29 C17 25.37 17 21.74 17 18 C17.66 18 18.32 18 19 18 C18.34 16.68 17.68 15.36 17 14 C16.67 18.62 16.34 23.24 16 28 C14.68 28.33 13.36 28.66 12 29 C10.00383446 27.00383446 10.59016573 23.18298037 10.4375 20.4375 C10.39431641 19.72658203 10.35113281 19.01566406 10.30664062 18.28320312 C10.20028223 16.52238088 10.09961154 14.7612168 10 13 C9.93941406 14.07121094 9.87882812 15.14242188 9.81640625 16.24609375 C9.73201463 17.64324391 9.64736594 19.04037857 9.5625 20.4375 C9.52318359 21.14455078 9.48386719 21.85160156 9.44335938 22.58007812 C9.11328125 27.88671875 9.11328125 27.88671875 8 29 C5.64686445 29.07271741 3.29166332 29.08370868 0.9375 29.0625 C-0.35285156 29.05347656 -1.64320312 29.04445313 -2.97265625 29.03515625 C-3.97167969 29.02355469 -4.97070312 29.01195313 -6 29 C-6.02887236 25.18751574 -6.04675492 21.3750593 -6.0625 17.5625 C-6.07087891 16.47388672 -6.07925781 15.38527344 -6.08789062 14.26367188 C-6.09111328 13.22919922 -6.09433594 12.19472656 -6.09765625 11.12890625 C-6.10289307 10.17056885 -6.10812988 9.21223145 -6.11352539 8.22485352 C-6 6 -6 6 -5 5 C-3.33382885 4.95936168 -1.66611905 4.957279 0 5 C0 3.35 0 1.7 0 0 Z M25 13 C26 17 26 17 26 17 Z M49 16 C48.06608997 17.81656815 48.06608997 17.81656815 48 20 C49.3516367 22.24755753 49.3516367 22.24755753 51 24 C53.86724686 23.42655063 54.8614515 23.1385485 57 21 C56.67958603 18.39719432 56.67958603 18.39719432 56 16 C52.41672247 14.99782936 52.41672247 14.99782936 49 16 Z M35 24 C36 26 36 26 36 26 Z M44 24 C45 26 45 26 45 26 Z " fill="#F19831" transform="translate(13,6)"/>
<path d="M0 0 C2 2 2 2 2.1953125 3.9453125 C2.13020833 5.96354167 2.06510417 7.98177083 2 10 C2.99 10.33 3.98 10.66 5 11 C6.58965571 13.21701147 7.72327486 15.57862473 9 18 C9.33 15.69 9.66 13.38 10 11 C11.32 11 12.64 11 14 11 C14.33 12.98 14.66 14.96 15 17 C15.37125 16.21625 15.7425 15.4325 16.125 14.625 C18 12 18 12 20.8125 10.5 C24.91944926 9.85577266 26.60001719 10.6818299 30 13 C32.17222379 15.64444635 31.99893321 17.02987018 31.875 20.5 C30.90185747 24.39257014 30.28995572 25.74897767 27 28 C20.78571429 29.39285714 20.78571429 29.39285714 18 28 C17.67 31.3 17.34 34.6 17 38 C11.72 38 6.44 38 1 38 C0.0625 30.625 0.0625 30.625 -0.22631836 28.30712891 C-0.68716455 24.53421662 -0.68716455 24.53421662 -2 21 C-2.06950541 19.45976004 -2.08452357 17.91665012 -2.0625 16.375 C-2.05347656 15.55773438 -2.04445312 14.74046875 -2.03515625 13.8984375 C-2.02355469 13.27195312 -2.01195312 12.64546875 -2 12 C-2.99 12 -3.98 12 -5 12 C-5 13.98 -5 15.96 -5 18 C-5.33 18 -5.66 18 -6 18 C-6 15.69 -6 13.38 -6 11 C-4.02 11 -2.04 11 0 11 C0 7.37 0 3.74 0 0 Z M20 16 C19.06608997 17.81656815 19.06608997 17.81656815 19 20 C20.3516367 22.24755753 20.3516367 22.24755753 22 24 C24.86724686 23.42655063 25.8614515 23.1385485 28 21 C27.67958603 18.39719432 27.67958603 18.39719432 27 16 C23.41672247 14.99782936 23.41672247 14.99782936 20 16 Z M6 24 C7 26 7 26 7 26 Z M15 24 C16 26 16 26 16 26 Z " fill="#BA9567" transform="translate(42,6)"/>
<path d="M0 0 C7.31088083 -0.61658031 7.31088083 -0.61658031 11 0 C13.52724468 2.13637845 14.44669538 4.00051522 16 7 C16.33 5.02 16.66 3.04 17 1 C17.99 1 18.98 1 20 1 C20 3.97 20 6.94 20 10 C18.35 10 16.7 10 15 10 C15.33 10.598125 15.66 11.19625 16 11.8125 C17 14 17 14 17 17 C14.69 17.33 12.38 17.66 10 18 C10 14.37 10 10.74 10 7 C10.66 7 11.32 7 12 7 C11.34 5.68 10.68 4.36 10 3 C9.67 7.62 9.34 12.24 9 17 C7.68 17.33 6.36 17.66 5 18 C3.00383446 16.00383446 3.59016573 12.18298037 3.4375 9.4375 C3.39431641 8.72658203 3.35113281 8.01566406 3.30664062 7.28320312 C3.20028223 5.52238088 3.09961154 3.7612168 3 2 C2.93941406 3.07121094 2.87882812 4.14242188 2.81640625 5.24609375 C2.73201463 6.64324391 2.64736594 8.04037857 2.5625 9.4375 C2.52318359 10.14455078 2.48386719 10.85160156 2.44335938 11.58007812 C2.11328125 16.88671875 2.11328125 16.88671875 1 18 C-1.35313555 18.07271741 -3.70833668 18.08370868 -6.0625 18.0625 C-7.35285156 18.05347656 -8.64320312 18.04445313 -9.97265625 18.03515625 C-10.97167969 18.02355469 -11.97070312 18.01195313 -13 18 C-13 17.34 -13 16.68 -13 16 C-9.04 16 -5.08 16 -1 16 C-0.67 10.72 -0.34 5.44 0 0 Z M18 2 C19 6 19 6 19 6 Z " fill="#F5DCB3" transform="translate(20,17)"/>
<path d="M0 0 C3.4375 1.8125 3.4375 1.8125 4.9375 3.5625 C5.68923147 6.9452916 5.27445764 9.46466944 4.4375 12.8125 C2.30750351 15.8891616 1.18095769 16.67013576 -2.5 17.375 C-6.71356301 16.60108026 -8.09698014 15.29323393 -10.5625 11.8125 C-11.25028033 8.79224726 -11.01786926 7.0000848 -10.5625 3.8125 C-7.44652454 -0.37794975 -5.09415379 -1.69805126 0 0 Z M-6.5625 4.8125 C-7.49641003 6.62906815 -7.49641003 6.62906815 -7.5625 8.8125 C-6.2108633 11.06005753 -6.2108633 11.06005753 -4.5625 12.8125 C-1.69525314 12.23905063 -0.7010485 11.9510485 1.4375 9.8125 C1.11708603 7.20969432 1.11708603 7.20969432 0.4375 4.8125 C-3.14577753 3.81032936 -3.14577753 3.81032936 -6.5625 4.8125 Z " fill="#333335" transform="translate(68.5625,17.1875)"/>
<path d="M0 0 C0.74886475 0.00523682 1.49772949 0.01047363 2.26928711 0.01586914 C3.07817383 0.0190918 3.88706055 0.02231445 4.72045898 0.02563477 C5.5705957 0.03401367 6.42073242 0.04239258 7.29663086 0.05102539 C8.15063477 0.05553711 9.00463867 0.06004883 9.88452148 0.06469727 C12.00108749 0.07652166 14.11761771 0.0944577 16.23413086 0.11352539 C16.23413086 2.75352539 16.23413086 5.39352539 16.23413086 8.11352539 C11.0376203 9.9163964 7.75008214 10.17428525 2.23413086 9.11352539 C1.24413086 9.11352539 0.25413086 9.11352539 -0.76586914 9.11352539 C-2.91396085 5.89138782 -3.05973067 4.83577138 -2.76586914 1.11352539 C-1.76586914 0.11352539 -1.76586914 0.11352539 0 0 Z " fill="#F59123" transform="translate(23.765869140625,5.886474609375)"/>
<path d="M0 0 C3.0625 0.3125 3.0625 0.3125 4.9375 1.6875 C6.0625 3.3125 6.0625 3.3125 6.0625 5.3125 C4.0825 5.3125 2.1025 5.3125 0.0625 5.3125 C2.87682629 7.36137209 2.87682629 7.36137209 6.0625 8.3125 C6.0625 10.9525 6.0625 13.5925 6.0625 16.3125 C3.375 17.5 3.375 17.5 0.0625 18.3125 C-2.75 17.1875 -2.75 17.1875 -4.9375 15.3125 C-5.75 13.125 -5.75 13.125 -5.9375 11.3125 C-4.2875 11.3125 -2.6375 11.3125 -0.9375 11.3125 C-0.9375 11.9725 -0.9375 12.6325 -0.9375 13.3125 C-0.2775 13.3125 0.3825 13.3125 1.0625 13.3125 C0.258125 12.508125 -0.54625 11.70375 -1.375 10.875 C-4.9375 7.3125 -4.9375 7.3125 -5.125 4.875 C-4.84364932 1.02987403 -3.75802329 0.39978971 0 0 Z " fill="#575757" transform="translate(79.9375,16.6875)"/>
<path d="M0 0 C1.32 0 2.64 0 4 0 C5.32 2.31 6.64 4.62 8 7 C8.33 4.69 8.66 2.38 9 0 C9.99 0 10.98 0 12 0 C12 5.28 12 10.56 12 16 C8 15 8 15 6.25 12.5625 C5 10 5 10 5 8 C4.34 8 3.68 8 3 8 C3 10.64 3 13.28 3 16 C2.01 16 1.02 16 0 16 C0 10.72 0 5.44 0 0 Z " fill="#25170B" transform="translate(43,17)"/>
<path d="M0 0 C1.09570312 0.00902344 2.19140625 0.01804688 3.3203125 0.02734375 C4.16335937 0.03894531 5.00640625 0.05054688 5.875 0.0625 C5.875 3.0325 5.875 6.0025 5.875 9.0625 C1.255 9.0625 -3.365 9.0625 -8.125 9.0625 C-8.125 6.4225 -8.125 3.7825 -8.125 1.0625 C-5.36047967 -0.31976016 -3.0788637 -0.03275387 0 0 Z " fill="#F09429" transform="translate(51.125,34.9375)"/>
<path d="M0 0 C1.32 0 2.64 0 4 0 C6.25 3 6.25 3 8 6 C8.33 4.02 8.66 2.04 9 0 C9.99 0 10.98 0 12 0 C12 2.97 12 5.94 12 9 C10.35 9 8.7 9 7 9 C7.33 9.598125 7.66 10.19625 8 10.8125 C9 13 9 13 9 16 C6.69 16.33 4.38 16.66 2 17 C2 13.37 2 9.74 2 6 C2.66 6 3.32 6 4 6 C3.34 4.68 2.68 3.36 2 2 C1.67 6.62 1.34 11.24 1 16 C0.67 16 0.34 16 0 16 C0 10.72 0 5.44 0 0 Z M10 1 C11 5 11 5 11 5 Z " fill="#F9EDC9" transform="translate(28,18)"/>
<path d="M0 0 C0.66 0 1.32 0 2 0 C2 3.63 2 7.26 2 11 C0.02 11 -1.96 11 -4 11 C-4 13.64 -4 16.28 -4 19 C-7.875 14.25 -7.875 14.25 -9 12 C-10.32 11.67 -11.64 11.34 -13 11 C-13 16.28 -13 21.56 -13 27 C-13.33 27 -13.66 27 -14 27 C-14 21.72 -14 16.44 -14 11 C-15.65 11 -17.3 11 -19 11 C-19 10.67 -19 10.34 -19 10 C-18.04738281 9.93941406 -17.09476563 9.87882813 -16.11328125 9.81640625 C-14.23189453 9.69072266 -14.23189453 9.69072266 -12.3125 9.5625 C-11.07113281 9.48128906 -9.82976563 9.40007813 -8.55078125 9.31640625 C-5.61819663 9.05508683 -2.86558383 8.65201621 0 8 C0 5.36 0 2.72 0 0 Z " fill="#D49445" transform="translate(40,6)"/>
<path d="M0 0 C2 2 2 2 2.1953125 3.9453125 C2.13020833 5.96354167 2.06510417 7.98177083 2 10 C2.66 10.33 3.32 10.66 4 11 C3.01 11 2.02 11 1 11 C1 16.28 1 21.56 1 27 C1.99 27.33 2.98 27.66 4 28 C2.68 28 1.36 28 0 28 C-1.86783046 22.51324804 -2.2358396 17.77807024 -2 12 C-2.99 12 -3.98 12 -5 12 C-5 13.98 -5 15.96 -5 18 C-5.33 18 -5.66 18 -6 18 C-6 15.69 -6 13.38 -6 11 C-4.02 11 -2.04 11 0 11 C0 7.37 0 3.74 0 0 Z " fill="#D2B284" transform="translate(42,6)"/>
<path d="M0 0 C3.0625 0.3125 3.0625 0.3125 4.9375 1.6875 C6.0625 3.3125 6.0625 3.3125 6.0625 5.3125 C4.0825 5.3125 2.1025 5.3125 0.0625 5.3125 C1.0525 6.3025 2.0425 7.2925 3.0625 8.3125 C1.4125 8.9725 -0.2375 9.6325 -1.9375 10.3125 C-4.22523145 8.50137927 -4.88959822 7.70529457 -5.25 4.75 C-4.77100993 1.01387747 -3.67769093 0.39124372 0 0 Z " fill="#3E3E3D" transform="translate(79.9375,16.6875)"/>
<path d="M0 0 C0.99 0.33 1.98 0.66 3 1 C3.4125 1.969375 3.825 2.93875 4.25 3.9375 C5.77460174 7.36410488 5.77460174 7.36410488 9.6875 8.375 C10.780625 8.58125 11.87375 8.7875 13 9 C12.01 10.485 12.01 10.485 11 12 C8.1875 12.5 8.1875 12.5 5 12 C2.125 9.9375 2.125 9.9375 0 7 C-0.3125 3.1875 -0.3125 3.1875 0 0 Z " fill="#2F2E2D" transform="translate(58,22)"/>
<path d="M0 0 C0.99 0 1.98 0 3 0 C3 5.28 3 10.56 3 16 C1.68 15.67 0.36 15.34 -1 15 C-1.33 13.35 -1.66 11.7 -2 10 C-1.34 10 -0.68 10 0 10 C0 6.7 0 3.4 0 0 Z " fill="#181513" transform="translate(52,17)"/>
<path d="M0 0 C0.33 0 0.66 0 1 0 C1 5.94 1 11.88 1 18 C-3.62 18 -8.24 18 -13 18 C-13 17.34 -13 16.68 -13 16 C-9.04 16 -5.08 16 -1 16 C-0.67 10.72 -0.34 5.44 0 0 Z " fill="#E4BE86" transform="translate(20,17)"/>
<path d="M0 0 C2 3 2 3 1.75 6.5625 C1 10 1 10 -1 12 C-3.125 11.625 -3.125 11.625 -5 11 C-4.67 10.443125 -4.34 9.88625 -4 9.3125 C-2.8690399 6.69715478 -2.84337026 4.8193354 -3 2 C-2.01 2 -1.02 2 0 2 C0 1.34 0 0.68 0 0 Z " fill="#3B3B3B" transform="translate(72,20)"/>
<path d="M0 0 C0.66 0 1.32 0 2 0 C6 6.75 6 6.75 6 9 C3.03 9.66 0.06 10.32 -3 11 C-3 10.34 -3 9.68 -3 9 C-2.01 9 -1.02 9 0 9 C0 6.03 0 3.06 0 0 Z M2 5 C3 7 3 7 3 7 Z " fill="#D7C2A7" transform="translate(46,25)"/>
<path d="M0 0 C1.32 0 2.64 0 4 0 C5.484375 1.6796875 5.484375 1.6796875 6.75 3.875 C7.39195313 4.95394531 7.39195313 4.95394531 8.046875 6.0546875 C9 8 9 8 9 10 C8.34 10 7.68 10 7 10 C6.67 10.66 6.34 11.32 6 12 C5.87625 11.360625 5.7525 10.72125 5.625 10.0625 C5.41875 9.381875 5.2125 8.70125 5 8 C4.34 7.67 3.68 7.34 3 7 C2.67 6.01 2.34 5.02 2 4 C1.34870203 2.65909241 0.68486725 1.32407669 0 0 Z " fill="#3E3B3A" transform="translate(43,17)"/>
<path d="M0 0 C0.33 0 0.66 0 1 0 C1.2475 1.2375 1.495 2.475 1.75 3.75 C2.6710758 7.51439673 3.91347366 9.53077893 7 12 C5.68 11.67 4.36 11.34 3 11 C3 12.98 3 14.96 3 17 C2.67 17 2.34 17 2 17 C2 14.69 2 12.38 2 10 C1.01 10 0.02 10 -1 10 C-1.125 3.375 -1.125 3.375 0 0 Z M0 7 C1 9 1 9 1 9 Z " fill="#ECE8E1" transform="translate(57,23)"/>
<path d="M0 0 C0.99 0.33 1.98 0.66 3 1 C3 1.99 3 2.98 3 4 C4.65 4.33 6.3 4.66 8 5 C7.01 5.99 6.02 6.98 5 8 C1.125 6.125 1.125 6.125 0 5 C-0.04063832 3.33382885 -0.042721 1.66611905 0 0 Z " fill="#303030" transform="translate(75,19)"/>
<path d="M0 0 C0.99 0.33 1.98 0.66 3 1 C2.9071875 2.3921875 2.9071875 2.3921875 2.8125 3.8125 C2.69105736 6.98395103 2.69105736 6.98395103 4.5 8.875 C4.995 9.24625 5.49 9.6175 6 10 C5.01 10.33 4.02 10.66 3 11 C0.39665076 8.28817788 0.00543309 7.10866187 -0.1875 3.25 C-0.125625 2.1775 -0.06375 1.105 0 0 Z " fill="#151413" transform="translate(58,22)"/>
<path d="M0 0 C2.72426311 2.35277269 3.8141763 4.62496331 5 8 C3.35 8 1.7 8 0 8 C0 5.36 0 2.72 0 0 Z " fill="#CBA165" transform="translate(31,25)"/>
<path d="M0 0 C1.65 0 3.3 0 5 0 C5 0.66 5 1.32 5 2 C5.66 2.33 6.32 2.66 7 3 C5.35 3.66 3.7 4.32 2 5 C1.34 3.35 0.68 1.7 0 0 Z " fill="#434343" transform="translate(74,28)"/>
<path d="M0 0 C0.66 1.32 1.32 2.64 2 4 C-1 5 -1 5 -4 4 C-4 3.34 -4 2.68 -4 2 C-2.68 1.34 -1.36 0.68 0 0 Z " fill="#5E5E5E" transform="translate(81,30)"/>
</svg>
